<svg xmlns="http://www.w3.org/2000/svg" width="32" height="28" viewBox="0 0 32 28"><g><g><path fill="#666d89" d="M16.5 5.5a.5.5 0 0 1-.5.5C10.673 6 6 8.804 6 12a.5.5 0 1 1-1 0c0-3.794 5.037-7 11-7a.5.5 0 0 1 .5.5zM32 12c0 6.627-7.164 12-16 12-1.057 0-2.087-.082-3.086-.228-.684.833-3.628 3.704-6.753 4.216.004-.013-.161.012-.255.012a.906.906 0 0 1-.832-1.263h-.002C5.662 25.723 7 23.793 7 22c0-.03.008-.047.008-.074C2.779 19.766 0 16.127 0 12 0 5.373 7.163 0 16 0c8.836 0 16 5.373 16 12zm-2 0c0-5.514-6.28-10-14-10S2 6.486 2 12c0 3.207 2.212 6.252 5.918 8.145a2 2 0 0 1 1.081 1.965c-.02 1.034-.326 2.038-.716 2.932 1.44-.856 2.657-2.018 3.085-2.54a2 2 0 0 1 1.836-.709c.939.138 1.879.207 2.796.207 7.72 0 14-4.486 14-10z"/></g></g></svg>