<svg xmlns="http://www.w3.org/2000/svg" width="32" height="32" viewBox="0 0 32 32"><g><g><path fill="#666d89" d="M30.107 13.186L14.845 28.569a4.028 4.028 0 0 1-1.705 1.015l-8.478 2.229c-.027.004-.772.187-1.157.187A3.503 3.503 0 0 1 0 28.5c0-.339.153-1.008.156-1.031l2.349-8.508a4.022 4.022 0 0 1 1.013-1.705l10.33-10.408-.002-.002c.008-.008.012-.019.02-.027.015-.014.032-.024.047-.038l4.867-4.904C19.99.668 21.65 0 23.45 0c2.135 0 4.3.938 5.946 2.58 3.175 3.17 3.488 7.826.711 10.606zM16.024 24.54l7.728-7.789-.013-.013c.008-.007.018-.012.026-.02 1.267-1.268 1.563-3.178.985-5.004l-9.454 9.453c.382.84.637 1.725.719 2.628.022.253.01.497.01.745zm8.314-13.83a6.98 6.98 0 0 0-1.28-1.77 6.95 6.95 0 0 0-2.098-1.437l-9.532 9.531c.731.404 1.432.881 2.044 1.493.525.524.949 1.115 1.322 1.728zm-4.429-3.57c-1.691-.42-3.409-.09-4.588 1.061l-7.703 7.762a7.973 7.973 0 0 1 2.868.599zM7.888 28.897c.05-1.156-.411-2.41-1.394-3.39-.967-.97-2.197-1.415-3.34-1.384l-1.052 3.814c-.023.107-.09.396-.102.563 0 .822.667 1.491 1.49 1.5.23-.015.569-.101.678-.127zm4.681-1.23c.126-.038.244-.097.36-.157 1.746-1.982 1.395-5.302-.871-7.568-2.144-2.145-5.229-2.569-7.235-1.133a1.973 1.973 0 0 0-.39.684l-.996 3.608c1.36.054 2.723.655 3.765 1.699 1.102 1.1 1.648 2.496 1.672 3.837zM29.99 8.163c-.101-1.497-.813-2.977-2.007-4.168C26.712 2.728 25.06 2 23.45 2c-1.265 0-2.422.46-3.249 1.286l-1.657 1.67c2.139.006 4.3.942 5.929 2.571 1.464 1.463 2.367 3.334 2.543 5.27.02.23-.007.447-.007.673l1.684-1.697c.93-.931 1.39-2.212 1.296-3.61z"/></g></g></svg>