<svg xmlns="http://www.w3.org/2000/svg" width="32" height="31" viewBox="0 0 32 31"><g><g><path fill="#666d89" d="M31.344 13.842l-6.103 6.093 1.416 8.451a2.228 2.228 0 0 1-.948 2.203 2.36 2.36 0 0 1-2.45.13L16 26.813 8.742 30.72a2.357 2.357 0 0 1-2.45-.13 2.226 2.226 0 0 1-.947-2.204l1.415-8.451-6.102-6.093a2.205 2.205 0 0 1-.537-2.285 2.298 2.298 0 0 1 1.842-1.511l8.327-1.238 3.619-7.514A2.318 2.318 0 0 1 16 0c.896 0 1.712.505 2.092 1.294l3.62 7.514 8.326 1.238a2.3 2.3 0 0 1 1.843 1.51c.274.801.067 1.683-.537 2.286zm-1.655-1.57l-8.327-1.24a2.305 2.305 0 0 1-1.742-1.268L16 2.25l-3.62 7.513a2.307 2.307 0 0 1-1.743 1.267l-8.326 1.24 6.102 6.092c.512.511.744 1.229.626 1.934l-1.416 8.452 7.26-3.907a2.358 2.358 0 0 1 2.235 0l7.259 3.907-1.415-8.452a2.213 2.213 0 0 1 .626-1.934z"/></g></g></svg>