<svg xmlns="http://www.w3.org/2000/svg" width="22" height="32" viewBox="0 0 22 32"><g><g><path fill="#666d89" d="M22 11c0 4-3.684 8.319-5.031 12.078C14.965 28.666 15.25 32 11 32c-4.187 0-3.966-3.349-5.969-8.945C3.69 19.303 0 15.03 0 11 0 4.925 4.925 0 11 0s11 4.925 11 11zm-8.048 14.982c.081-.278.176-.588.264-.884l-6.189.773a43.962 43.962 0 0 0 .606 1.925l4.96-.62c.11-.354.228-.745.36-1.194zm.583-1.923c.107-.34.23-.7.352-1.059H7.12c.229.672.434 1.307.615 1.908zm-1.294 4.16l-4.238.531C9.52 29.884 9.987 30 11 30c1.18 0 1.628-.127 2.241-1.78zm4.104-10.424C18.65 15.446 20 13.018 20 11c0-4.963-4.037-9-9-9s-9 4.037-9 9c0 2.033 1.349 4.448 2.653 6.783.59 1.057 1.188 2.138 1.686 3.217h9.333c.495-1.074 1.088-2.151 1.673-3.205zM11.5 5.5a.5.5 0 0 1-.5.5c-2.757 0-5 2.243-5 5a.5.5 0 1 1-1 0c0-3.309 2.691-6 6-6a.5.5 0 0 1 .5.5z"/></g></g></svg>